<svg width="50" height="49" viewBox="0 0 50 49" fill="none" xmlns="http://www.w3.org/2000/svg">
<rect x="0.628052" y="0.0556641" width="48.8889" height="48.8889" rx="8" fill="white"/>
<path fill-rule="evenodd" clip-rule="evenodd" d="M15.6512 13.5513C15.2293 13.5513 14.8873 13.8933 14.8873 14.3152C14.8873 14.737 15.2293 15.079 15.6512 15.079H17.6883C18.3914 15.079 18.9614 15.6491 18.9614 16.3522V16.3523H20.4892V16.3522C20.4892 14.8053 19.2352 13.5513 17.6883 13.5513H15.6512Z" fill="#28303F"/>
<path opacity="0.4" d="M18.9613 16.3521H31.1835C33.4336 16.3521 35.2576 18.1761 35.2576 20.4261V25.5187C35.2576 27.7688 33.4336 29.5928 31.1835 29.5928H23.0354C20.7853 29.5928 18.9613 27.7688 18.9613 25.5187V16.3521Z" fill="#28303F"/>
<circle cx="22.5262" cy="33.1577" r="1.52778" fill="#28303F"/>
<circle cx="31.6928" cy="33.1577" r="1.52778" fill="#28303F"/>
<path fill-rule="evenodd" clip-rule="evenodd" d="M30.8303 24.1252C31.0375 24.4927 30.9076 24.9586 30.5401 25.1658C29.3024 25.8636 28.2364 26.2806 27.1123 26.2828C25.9868 26.2849 24.9186 25.8712 23.6761 25.1643C23.3094 24.9557 23.1812 24.4893 23.3898 24.1226C23.5985 23.7559 24.0648 23.6278 24.4315 23.8364C25.5888 24.4947 26.3782 24.7564 27.1093 24.755C27.8418 24.7536 28.6314 24.488 29.7898 23.8349C30.1573 23.6277 30.6231 23.7577 30.8303 24.1252Z" fill="#28303F"/>
</svg>
