<svg width="22" height="22" viewBox="0 0 22 22" fill="none" xmlns="http://www.w3.org/2000/svg">
<path d="M11.0536 11.3323H10.2681C10.2681 11.6704 10.4845 11.9706 10.8052 12.0776L11.0536 11.3323ZM11.8392 6.96816C11.8392 6.53432 11.4875 6.18261 11.0536 6.18261C10.6198 6.18261 10.2681 6.53432 10.2681 6.96816H11.8392ZM13.4237 12.9504C13.8353 13.0876 14.2802 12.8652 14.4174 12.4536C14.5546 12.042 14.3321 11.5971 13.9205 11.4599L13.4237 12.9504ZM11.8392 11.3323V6.96816H10.2681V11.3323H11.8392ZM10.8052 12.0776L13.4237 12.9504L13.9205 11.4599L11.302 10.5871L10.8052 12.0776ZM18.9964 11.3323C18.9964 15.719 15.4403 19.2751 11.0536 19.2751V20.8462C16.308 20.8462 20.5675 16.5867 20.5675 11.3323H18.9964ZM11.0536 19.2751C6.66697 19.2751 3.11087 15.719 3.11087 11.3323H1.53977C1.53977 16.5867 5.79927 20.8462 11.0536 20.8462V19.2751ZM3.11087 11.3323C3.11087 6.94565 6.66697 3.38955 11.0536 3.38955V1.81846C5.79927 1.81846 1.53977 6.07796 1.53977 11.3323H3.11087ZM11.0536 3.38955C15.4403 3.38955 18.9964 6.94565 18.9964 11.3323H20.5675C20.5675 6.07796 16.308 1.81846 11.0536 1.81846V3.38955Z" fill="#28303F"/>
</svg>
