<svg width="49" height="49" viewBox="0 0 49 49" fill="none" xmlns="http://www.w3.org/2000/svg">
<rect x="0.0725098" y="0.0556641" width="48.8889" height="48.8889" rx="8" fill="white"/>
<path opacity="0.4" d="M19.4254 21.4448L29.6087 21.4448C31.8584 21.4448 33.682 23.2685 33.682 25.5182L33.682 29.5915C33.682 31.8411 31.8584 33.6648 29.6087 33.6648L19.4254 33.6648C17.1757 33.6648 15.3521 31.8411 15.3521 29.5915L15.3521 25.5182C15.3521 23.2685 17.1757 21.4448 19.4254 21.4448Z" fill="#D51F26"/>
<path fill-rule="evenodd" clip-rule="evenodd" d="M20.9219 23.96C20.6237 24.2583 20.6237 24.7418 20.9219 25.0401L23.9769 28.0951C24.2752 28.3934 24.7588 28.3934 25.057 28.0951L28.112 25.0401C28.4103 24.7418 28.4103 24.2582 28.112 23.96C27.8138 23.6617 27.3302 23.6617 27.0319 23.96L25.2807 25.7112L25.2807 15.335C25.2807 14.9132 24.9388 14.5713 24.517 14.5713C24.0952 14.5713 23.7532 14.9132 23.7532 15.335L23.7532 25.7112L22.002 23.96C21.7038 23.6617 21.2202 23.6617 20.9219 23.96Z" fill="#D51F26"/>
</svg>
