<svg width="116" height="37" viewBox="0 0 116 37" fill="none" xmlns="http://www.w3.org/2000/svg">
<path d="M30.5632 15.338C30.5632 19.4662 29.0838 22.993 26.1297 25.9232C23.1708 28.8535 19.6392 30.3139 15.5206 30.3139C11.3638 30.3139 7.81316 28.8487 4.86858 25.9232C1.924 22.993 0.454102 19.4519 0.454102 15.2951C0.454102 11.1383 1.91923 7.59718 4.84472 4.67647C7.77498 1.75575 11.3066 0.295399 15.4538 0.295399V2.39526C11.8983 2.42389 8.85832 3.69336 6.33849 6.20842C3.81865 8.72348 2.55874 11.7492 2.55874 15.2951C2.55874 18.8648 3.8282 21.9096 6.36235 24.4247C8.8965 26.9398 11.9508 28.1949 15.5206 28.1949C19.0474 28.1949 22.0827 26.9398 24.6168 24.4247C27.151 21.9096 28.4204 18.8839 28.4204 15.338V0.252441H30.5632V15.338Z" fill="black"/>
<path d="M35.4884 26.7061H38.1228V28.8919H33.3217V3.1352L32.4006 3.34995V1.12124L35.4884 0.114258V26.7061Z" fill="black"/>
<path d="M53.9818 26.7059C55.9242 26.7059 56.8978 25.508 56.8978 23.1075V6.6952L59.0406 8.88096V23.2364C59.0406 27.0066 57.3559 28.8917 53.9818 28.8917C52.1969 28.8917 50.8798 28.3047 50.0398 27.1354C49.1378 28.3047 47.8111 28.8917 46.0548 28.8917C44.27 28.8917 42.948 28.3047 42.089 27.1354C41.187 28.3047 39.8603 28.8917 38.104 28.8917V26.7059C40.0321 26.7059 40.9961 25.508 40.9961 23.1075V8.96209L43.1628 6.69043V23.1028C43.1628 25.5033 44.1268 26.7012 46.0548 26.7012C47.9829 26.7012 48.9469 25.5033 48.9469 23.1028V8.87619H51.0897V23.1028C51.0897 25.508 52.0538 26.7059 53.9818 26.7059Z" fill="black"/>
<path d="M59.7134 36.8425V34.7236C61.3837 34.2368 62.5196 33.4875 63.1209 32.471C63.7222 31.4545 64.0229 29.8271 64.0229 27.5841V8.87619H60.9781V6.69043H66.1227V28.1854C66.1227 30.7291 65.6169 32.6905 64.6099 34.065C63.6029 35.4442 61.9707 36.3701 59.7134 36.8425Z" fill="black"/>
<path d="M85.8472 26.706H91.2018V28.8918H84.258L78.4738 36.8856L76.6746 35.6877L82.034 28.2332C80.7503 28.6771 79.5763 28.8966 78.5216 28.8966C75.5054 28.8966 72.9092 27.8132 70.733 25.6513C68.5568 23.4894 67.4639 20.898 67.4639 17.8819C67.4639 14.8132 68.552 12.1836 70.733 10.0074C72.9092 7.83116 75.534 6.73828 78.6074 6.73828C81.6522 6.73828 84.2628 7.82161 86.439 9.98352C88.6152 12.1454 89.7081 14.7368 89.7081 17.753C89.7081 19.2086 89.479 20.5115 89.0209 21.6521C88.5198 22.9358 87.57 24.4869 86.1717 26.3004L85.8472 26.706ZM69.6496 17.92C69.6496 20.2919 70.5373 22.3536 72.3079 24.1146C74.0784 25.8709 76.164 26.749 78.5645 26.749C81.0223 26.749 83.1269 25.8709 84.8879 24.1146C86.6442 22.3584 87.5223 20.2633 87.5223 17.8389C87.5223 15.3811 86.6442 13.2813 84.8879 11.5393C83.1317 9.7974 81.0366 8.92405 78.6074 8.92405C76.121 8.92405 74.0068 9.80216 72.2649 11.5584C70.5182 13.3147 69.6496 15.4336 69.6496 17.92Z" fill="black"/>
<path d="M96.7755 26.7061C94.6183 25.0071 93.5398 22.6209 93.5398 19.5475C93.5398 17.0611 94.3988 14.9421 96.1216 13.1811C97.8445 11.4248 99.9873 10.4751 102.56 10.332V1.6748L104.726 3.68876V5.40206L107.876 6.10837C110.448 7.11058 112.443 8.57093 113.865 10.499C115.288 12.427 115.999 14.6796 115.999 17.2472C115.999 20.5592 114.844 23.3272 112.539 25.5512C110.234 27.7703 107.365 28.8823 103.934 28.8823H91.2061V26.6966H96.7755V26.7061ZM102.56 26.792V12.4366C100.632 12.5511 99.0042 13.2956 97.6727 14.6748C96.3412 16.0541 95.6778 17.6767 95.6778 19.5475C95.6778 21.5328 96.3078 23.1841 97.5629 24.4965C98.8276 25.8137 100.488 26.5772 102.56 26.792ZM113.856 17.1708C113.856 14.5985 113.021 12.4414 111.35 10.6994C109.68 8.9575 107.47 7.94098 104.731 7.65464V10.5038C106.888 10.9476 108.673 12.0739 110.086 13.8874L108.458 15.195C107.485 13.9685 106.244 13.1286 104.731 12.6895V26.8731C107.447 26.5725 109.647 25.5321 111.331 23.7424C113.011 21.9623 113.856 19.7718 113.856 17.1708Z" fill="black"/>
<path d="M15.5063 18.5786C17.325 18.5786 18.7993 17.1043 18.7993 15.2856C18.7993 13.467 17.325 11.9927 15.5063 11.9927C13.6877 11.9927 12.2134 13.467 12.2134 15.2856C12.2134 17.1043 13.6877 18.5786 15.5063 18.5786Z" stroke="black" stroke-width="1.62338" stroke-miterlimit="10"/>
</svg>
