<svg width="25" height="25" viewBox="0 0 25 25" fill="none" xmlns="http://www.w3.org/2000/svg">
<path opacity="0.4" d="M2.5 7.5C2.5 5.29086 4.29086 3.5 6.5 3.5H18.5C20.7091 3.5 22.5 5.29086 22.5 7.5V17.5C22.5 19.7091 20.7091 21.5 18.5 21.5H6.5C4.29086 21.5 2.5 19.7091 2.5 17.5V7.5Z" fill="#D51F26"/>
<path fill-rule="evenodd" clip-rule="evenodd" d="M5.87604 8.08405C6.10581 7.73941 6.57146 7.64628 6.9161 7.87604L10.6973 10.3968C11.789 11.1246 13.2112 11.1246 14.3029 10.3968L18.0841 7.87604C18.4287 7.64628 18.8944 7.73941 19.1241 8.08405C19.3539 8.4287 19.2608 8.89435 18.9161 9.12412L15.1349 11.6449C13.5394 12.7086 11.4608 12.7086 9.86525 11.6449L6.08405 9.12412C5.73941 8.89435 5.64628 8.4287 5.87604 8.08405Z" fill="#D51F26"/>
</svg>
