<svg width="25" height="24" viewBox="0 0 25 24" fill="none" xmlns="http://www.w3.org/2000/svg">
<path opacity="0.4" d="M5.5 5C5.5 3.34315 6.84315 2 8.5 2H16.5C18.1569 2 19.5 3.34315 19.5 5V19C19.5 20.6569 18.1569 22 16.5 22H8.5C6.84315 22 5.5 20.6569 5.5 19V5Z" fill="#D51F26"/>
<path fill-rule="evenodd" clip-rule="evenodd" d="M10.75 19C10.75 18.5858 11.0858 18.25 11.5 18.25H13.5C13.9142 18.25 14.25 18.5858 14.25 19C14.25 19.4142 13.9142 19.75 13.5 19.75H11.5C11.0858 19.75 10.75 19.4142 10.75 19Z" fill="#D51F26"/>
</svg>
