<svg width="16" height="17" viewBox="0 0 16 17" fill="none" xmlns="http://www.w3.org/2000/svg">
<mask id="path-1-inside-1_87_9301" fill="white">
<path d="M15.9171 9.90996H9.42907V16.4894H6.83993V9.90996H0.382324V7.5645H6.83993V0.95459H9.42907V7.5645H15.9171V9.90996Z"/>
</mask>
<path d="M15.9171 9.90996H9.42907V16.4894H6.83993V9.90996H0.382324V7.5645H6.83993V0.95459H9.42907V7.5645H15.9171V9.90996Z" fill="black"/>
<path d="M15.9171 9.90996V14.1153H20.1224V9.90996H15.9171ZM9.42907 9.90996V5.70465H5.22376V9.90996H9.42907ZM9.42907 16.4894V20.6947H13.6344V16.4894H9.42907ZM6.83993 16.4894H2.63463V20.6947H6.83993V16.4894ZM6.83993 9.90996H11.0452V5.70465H6.83993V9.90996ZM0.382324 9.90996H-3.82298V14.1153H0.382324V9.90996ZM0.382324 7.5645V3.3592H-3.82298V7.5645H0.382324ZM6.83993 7.5645V11.7698H11.0452V7.5645H6.83993ZM6.83993 0.95459V-3.25071H2.63463V0.95459H6.83993ZM9.42907 0.95459H13.6344V-3.25071H9.42907V0.95459ZM9.42907 7.5645H5.22376V11.7698H9.42907V7.5645ZM15.9171 7.5645H20.1224V3.3592H15.9171V7.5645ZM15.9171 5.70465H9.42907V14.1153H15.9171V5.70465ZM5.22376 9.90996V16.4894H13.6344V9.90996H5.22376ZM9.42907 12.2841H6.83993V20.6947H9.42907V12.2841ZM11.0452 16.4894V9.90996H2.63463V16.4894H11.0452ZM6.83993 5.70465H0.382324V14.1153H6.83993V5.70465ZM4.58763 9.90996V7.5645H-3.82298V9.90996H4.58763ZM0.382324 11.7698H6.83993V3.3592H0.382324V11.7698ZM11.0452 7.5645V0.95459H2.63463V7.5645H11.0452ZM6.83993 5.15989H9.42907V-3.25071H6.83993V5.15989ZM5.22376 0.95459V7.5645H13.6344V0.95459H5.22376ZM9.42907 11.7698H15.9171V3.3592H9.42907V11.7698ZM11.7118 7.5645V9.90996H20.1224V7.5645H11.7118Z" fill="white" mask="url(#path-1-inside-1_87_9301)"/>
</svg>
