<svg width="20" height="19" viewBox="0 0 20 19" fill="none" xmlns="http://www.w3.org/2000/svg">
<path opacity="0.4" d="M18.625 16.875V15.2291C18.625 14.4113 18.1271 13.6758 17.3678 13.3721L15.3336 12.5585C14.3679 12.1721 13.2672 12.5906 12.802 13.521L12.625 13.875C12.625 13.875 10.125 13.375 8.125 11.375C6.125 9.375 5.625 6.875 5.625 6.875L5.97902 6.69799C6.90938 6.23281 7.32785 5.13214 6.94154 4.16636L6.12789 2.13222C5.82416 1.3729 5.08874 0.875 4.27093 0.875H2.625C1.52043 0.875 0.625 1.77043 0.625 2.875C0.625 11.7116 7.78844 18.875 16.625 18.875C17.7296 18.875 18.625 17.9796 18.625 16.875Z" fill="#D51F26"/>
<path fill-rule="evenodd" clip-rule="evenodd" d="M9.875 4.875C9.875 4.46079 10.2108 4.125 10.625 4.125C11.2488 4.125 11.8664 4.24786 12.4427 4.48657C13.019 4.72528 13.5427 5.07516 13.9838 5.51624C14.4248 5.95732 14.7747 6.48096 15.0134 7.05725C15.2521 7.63355 15.375 8.25122 15.375 8.875C15.375 9.28921 15.0392 9.625 14.625 9.625C14.2108 9.625 13.875 9.28921 13.875 8.875C13.875 8.4482 13.7909 8.02559 13.6276 7.63128C13.4643 7.23697 13.2249 6.87869 12.9231 6.5769C12.6213 6.27511 12.263 6.03572 11.8687 5.87239C11.4744 5.70906 11.0518 5.625 10.625 5.625C10.2108 5.625 9.875 5.28921 9.875 4.875Z" fill="#D51F26"/>
<path fill-rule="evenodd" clip-rule="evenodd" d="M9.875 0.875C9.875 0.460786 10.2108 0.125 10.625 0.125C11.7741 0.125 12.9119 0.351325 13.9735 0.791054C15.0351 1.23078 15.9997 1.8753 16.8122 2.68782C17.6247 3.50033 18.2692 4.46492 18.7089 5.52652C19.1487 6.58812 19.375 7.72593 19.375 8.875C19.375 9.28921 19.0392 9.625 18.625 9.625C18.2108 9.625 17.875 9.28921 17.875 8.875C17.875 7.92292 17.6875 6.98016 17.3231 6.10054C16.9588 5.22093 16.4247 4.4217 15.7515 3.74848C15.0783 3.07525 14.2791 2.54122 13.3995 2.17687C12.5198 1.81253 11.5771 1.625 10.625 1.625C10.2108 1.625 9.875 1.28921 9.875 0.875Z" fill="#D51F26"/>
</svg>
