<svg width="24" height="25" viewBox="0 0 24 25" fill="none" xmlns="http://www.w3.org/2000/svg">
<path d="M15.0016 19.8925C16.5608 20.7459 17.932 19.7115 17.6338 17.9014L17.0984 14.6513L19.3664 12.3496C20.6278 11.0695 20.1067 9.39214 18.361 9.12804L15.2267 8.65386L13.8319 5.71145C13.0506 4.06325 11.3542 4.04553 10.5714 5.69683L9.16972 8.65386L6.03538 9.12804C4.2922 9.39176 3.76683 11.0677 5.02999 12.3496L7.29802 14.6513L6.76261 17.9014C6.46484 19.709 7.83341 20.7471 9.39476 19.8925L12.1982 18.358L15.0016 19.8925Z" fill="#F7B529"/>
<mask id="mask0_87_9290" style="mask-type:luminance" maskUnits="userSpaceOnUse" x="4" y="4" width="17" height="17">
<path d="M15.0016 19.8925C16.5608 20.7459 17.932 19.7115 17.6338 17.9014L17.0984 14.6513L19.3664 12.3496C20.6278 11.0695 20.1067 9.39214 18.361 9.12804L15.2267 8.65386L13.8319 5.71145C13.0506 4.06325 11.3542 4.04553 10.5714 5.69683L9.16972 8.65386L6.03538 9.12804C4.2922 9.39176 3.76683 11.0677 5.02999 12.3496L7.29802 14.6513L6.76261 17.9014C6.46484 19.709 7.83341 20.7471 9.39476 19.8925L12.1982 18.358L15.0016 19.8925Z" fill="white"/>
</mask>
<g mask="url(#mask0_87_9290)">
</g>
</svg>
