<svg width="84" height="27" viewBox="0 0 84 27" fill="none" xmlns="http://www.w3.org/2000/svg">
<path d="M22.3124 10.9769C22.3124 13.921 21.2573 16.4362 19.1505 18.5259C17.0404 20.6157 14.5218 21.6572 11.5845 21.6572C8.62005 21.6572 6.08783 20.6123 3.98786 18.5259C1.88788 16.4362 0.8396 13.9108 0.8396 10.9463C0.8396 7.98182 1.88448 5.45641 3.97084 3.37345C6.0606 1.29049 8.57921 0.249019 11.5369 0.249019V1.74657C9.00124 1.76699 6.8332 2.67233 5.03614 4.46598C3.23908 6.25964 2.34055 8.41747 2.34055 10.9463C2.34055 13.4921 3.24589 15.6636 5.05316 17.4572C6.86043 19.2509 9.03868 20.146 11.5845 20.146C14.0997 20.146 16.2644 19.2509 18.0716 17.4572C19.8789 15.6636 20.7842 13.5057 20.7842 10.9769V0.218384H22.3124V10.9769Z" fill="#DEDEDE"/>
<path d="M25.8249 19.0841H27.7036V20.6429H24.2797V2.27406L23.6228 2.42722V0.837772L25.8249 0.119629V19.0841Z" fill="#DEDEDE"/>
<path d="M39.0135 19.0841C40.3987 19.0841 41.093 18.2298 41.093 16.5178V4.81309L42.6212 6.37191V16.6097C42.6212 19.2985 41.4197 20.6429 39.0135 20.6429C37.7405 20.6429 36.8012 20.2242 36.2022 19.3904C35.5589 20.2242 34.6127 20.6429 33.3602 20.6429C32.0873 20.6429 31.1445 20.2242 30.5319 19.3904C29.8886 20.2242 28.9424 20.6429 27.6899 20.6429V19.0841C29.065 19.0841 29.7525 18.2298 29.7525 16.5178V6.42977L31.2977 4.80969V16.5144C31.2977 18.2264 31.9852 19.0807 33.3602 19.0807C34.7352 19.0807 35.4227 18.2264 35.4227 16.5144V6.36851H36.9509V16.5144C36.9509 18.2298 37.6384 19.0841 39.0135 19.0841Z" fill="#DEDEDE"/>
<path d="M43.1011 26.3131V24.802C44.2923 24.4548 45.1024 23.9205 45.5312 23.1955C45.96 22.4706 46.1745 21.31 46.1745 19.7103V6.36851H44.003V4.80969H47.672V20.1392C47.672 21.9532 47.3112 23.3521 46.5931 24.3323C45.8749 25.3159 44.7109 25.9762 43.1011 26.3131Z" fill="#DEDEDE"/>
<path d="M61.7388 19.0841H65.5575V20.6429H60.6054L56.4803 26.3438L55.1972 25.4895L59.0194 20.1732C58.1038 20.4897 57.2666 20.6463 56.5144 20.6463C54.3634 20.6463 52.5118 19.8737 50.9598 18.3319C49.4078 16.7901 48.6284 14.942 48.6284 12.791C48.6284 10.6025 49.4044 8.72717 50.9598 7.17516C52.5118 5.62315 54.3838 4.84375 56.5756 4.84375C58.7471 4.84375 60.6088 5.61635 62.1608 7.15814C63.7128 8.69994 64.4922 10.5481 64.4922 12.6991C64.4922 13.7372 64.3289 14.6663 64.0021 15.4798C63.6448 16.3953 62.9675 17.5014 61.9702 18.7948L61.7388 19.0841ZM50.1872 12.8182C50.1872 14.5098 50.8203 15.9801 52.083 17.236C53.3457 18.4885 54.833 19.1147 56.545 19.1147C58.2978 19.1147 59.7988 18.4885 61.0547 17.236C62.3072 15.9835 62.9334 14.4893 62.9334 12.7603C62.9334 11.0075 62.3072 9.50998 61.0547 8.26769C59.8022 7.02541 58.308 6.40256 56.5756 6.40256C54.8024 6.40256 53.2946 7.02881 52.0524 8.2813C50.8067 9.5338 50.1872 11.045 50.1872 12.8182Z" fill="#DEDEDE"/>
<path d="M69.5329 19.084C67.9946 17.8724 67.2254 16.1706 67.2254 13.9787C67.2254 12.2055 67.838 10.6943 69.0667 9.43844C70.2953 8.18594 71.8235 7.50864 73.658 7.40653V1.23254L75.2032 2.66883V3.89069L77.4495 4.39441C79.284 5.10915 80.7067 6.15063 81.721 7.52565C82.7352 8.90068 83.2423 10.5071 83.2423 12.3382C83.2423 14.7003 82.4187 16.6743 80.7748 18.2604C79.1309 19.843 77.0854 20.636 74.6382 20.636H65.561V19.0772H69.5329V19.084ZM73.658 19.1453V8.90748C72.283 8.98917 71.1224 9.52012 70.1728 10.5037C69.2232 11.4874 68.7501 12.6446 68.7501 13.9787C68.7501 15.3946 69.1994 16.5722 70.0945 17.5082C70.9965 18.4476 72.1809 18.9921 73.658 19.1453ZM81.7142 12.2838C81.7142 10.4493 81.1185 8.91089 79.9273 7.6686C78.7361 6.42631 77.1602 5.70137 75.2066 5.49716V7.52906C76.745 7.84559 78.0179 8.64882 79.0254 9.94216L77.8648 10.8747C77.1705 10 76.2855 9.401 75.2066 9.08787V19.2031C77.1432 18.9887 78.7122 18.2467 79.9137 16.9704C81.1117 15.7009 81.7142 14.1387 81.7142 12.2838Z" fill="#DEDEDE"/>
<path d="M11.5743 13.2878C12.8713 13.2878 13.9227 12.2364 13.9227 10.9394C13.9227 9.64237 12.8713 8.59094 11.5743 8.59094C10.2773 8.59094 9.22583 9.64237 9.22583 10.9394C9.22583 12.2364 10.2773 13.2878 11.5743 13.2878Z" stroke="#DEDEDE" stroke-width="1.15774" stroke-miterlimit="10"/>
</svg>
