<svg width="25" height="24" viewBox="0 0 25 24" fill="none" xmlns="http://www.w3.org/2000/svg">
<path opacity="0.4" d="M18.5 2H6.5C4.29086 2 2.5 3.79086 2.5 6V18C2.5 19.8642 3.77532 21.4306 5.50111 21.8743C5.82039 21.9563 6.1551 22 6.5 22H18.5C18.8449 22 19.1796 21.9563 19.4989 21.8743C21.2247 21.4306 22.5 19.8642 22.5 18V6C22.5 3.79086 20.7091 2 18.5 2Z" fill="#D51F26"/>
<circle cx="3" cy="3" r="3" transform="matrix(1 0 0 -1 9.5 13)" fill="#D51F26"/>
<path d="M6.49987 22H18.4999C18.8448 22 19.1795 21.9563 19.4988 21.8743C19.4317 18.0663 16.3239 15 12.4999 15C8.67588 15 5.56805 18.0663 5.50098 21.8743C5.82026 21.9563 6.15497 22 6.49987 22Z" fill="#D51F26"/>
</svg>
